<svg xmlns="http://www.w3.org/2000/svg" width="39" height="26" viewBox="0 0 39 26" fill="none">
    <path
        d="M1.71156 0.755127H36.4465C36.8953 0.767182 37.3211 0.956141 37.631 1.28101C37.9409 1.60587 38.1096 2.04015 38.1005 2.48901V24.1619C38.1096 24.6107 37.9409 25.045 37.631 25.3699C37.3211 25.6947 36.8953 25.8837 36.4465 25.8958H1.71156C1.26276 25.8837 0.836862 25.6947 0.526985 25.3699C0.217107 25.045 0.0483613 24.6107 0.0575023 24.1619V2.48999C0.0480936 2.04096 0.216835 1.60658 0.526741 1.28149C0.836646 0.956412 1.26258 0.767181 1.71156 0.755127Z"
        fill="#F1F1F1" />
    <path
        d="M0.469368 25.3049C0.203751 24.9842 0.059086 24.5803 0.0604322 24.1638V2.48999C0.0510236 2.04096 0.219643 1.60658 0.529548 1.28149C0.839454 0.956412 1.26539 0.767181 1.71436 0.755127H36.4484C36.87 0.756073 37.2744 0.922587 37.5743 1.21899L0.474373 25.3049H0.469368Z"
        fill="white" fill-opacity="0.73" />
    <path
        d="M14.7058 18.72L16.0057 16.3699L15.2817 10.7259H17.0527L17.3387 14.0662L19.0718 10.7259H20.8998L16.6908 18.72H14.7058ZM9.15271 14.5042C9.42571 13.1302 10.7527 12.6942 12.7147 12.6942C12.8317 12.0832 12.4428 11.93 11.7808 11.953C11.1971 11.9812 10.6233 12.1144 10.0868 12.346L10.2417 10.973C10.8859 10.7728 11.553 10.6554 12.2268 10.6239C13.4528 10.6019 14.8158 10.9933 14.5048 12.5863L13.7457 16.3363H11.9747L12.0907 15.7679C11.8851 15.98 11.6394 16.1494 11.3678 16.2655C11.0962 16.3815 10.8042 16.4422 10.5088 16.4442C9.66979 16.4402 8.92281 15.8938 9.15381 14.4998L9.15271 14.5042ZM10.9637 14.4168C10.908 14.4958 10.8763 14.5893 10.8726 14.6859C10.8688 14.7824 10.8931 14.8782 10.9425 14.9613C10.9919 15.0443 11.0642 15.1114 11.1509 15.1541C11.2375 15.1969 11.3348 15.2133 11.4308 15.202C11.6499 15.2117 11.8651 15.142 12.0369 15.0057C12.2087 14.8694 12.3254 14.6759 12.3657 14.4603C12.3889 14.2917 12.4223 14.1248 12.4657 13.9603H12.0177C11.8182 13.9418 11.6172 13.9734 11.4331 14.0526C11.249 14.1317 11.0876 14.2554 10.9637 14.4129V14.4168ZM3.05273 16.3363L4.51672 9.16389H7.82373C8.11853 9.16128 8.40968 9.2295 8.67273 9.36262C8.93578 9.49574 9.16309 9.68994 9.33557 9.92903C9.50806 10.1681 9.6207 10.445 9.66406 10.7366C9.70742 11.0282 9.68017 11.3259 9.58472 11.6048C9.48953 12.2607 9.16078 12.8601 8.65881 13.2928C8.15685 13.7255 7.5155 13.9628 6.85278 13.9603H5.46973L4.99475 16.3363H3.05273ZM5.74573 12.5863H6.65576C6.92196 12.565 7.17401 12.4575 7.37402 12.2806C7.57404 12.1037 7.71121 11.8664 7.76477 11.6048C7.80674 11.4972 7.82215 11.3813 7.80969 11.2664C7.79724 11.1516 7.75731 11.0413 7.69324 10.9451C7.62917 10.849 7.54287 10.7699 7.44165 10.7142C7.34043 10.6585 7.2272 10.6275 7.11169 10.6248H6.16174L5.74573 12.5863Z"
        fill="#3284AE" />
    <path
        d="M26.3695 14.4998C26.6455 13.1258 27.9865 12.6912 29.9755 12.6912C30.1135 12.0792 29.7196 11.928 29.0496 11.95C28.4534 11.9806 27.8669 12.1133 27.3156 12.342L27.4735 10.969C28.1333 10.7713 28.8146 10.6543 29.5026 10.6208C30.7436 10.5988 32.1025 10.9898 31.7875 12.5818L31.0195 16.3308H29.2465L29.3645 15.7649C28.9349 16.194 28.3537 16.4371 27.7465 16.4412C26.8885 16.4402 26.1325 15.8948 26.3695 14.4998ZM28.2025 14.4128C28.1486 14.4944 28.1193 14.59 28.1182 14.6877C28.117 14.7855 28.1442 14.8813 28.1962 14.9641C28.2482 15.0469 28.3228 15.1131 28.4114 15.1545C28.4999 15.196 28.5987 15.2111 28.6956 15.198C28.9134 15.2077 29.1272 15.1378 29.2975 15.0017C29.4678 14.8656 29.5829 14.6723 29.6215 14.4578C29.6605 14.2828 29.6806 14.1298 29.7216 13.9578H29.2885C29.0835 13.937 28.8767 13.9679 28.6865 14.0471C28.4964 14.1264 28.329 14.2517 28.1995 14.4119L28.2025 14.4128ZM31.8385 16.3308L33.3046 9.13696H35.1245L33.6395 16.3308H31.8385ZM20.2695 16.3308L21.7316 9.15991H25.0315C25.3255 9.15912 25.6154 9.2284 25.8772 9.36206C26.139 9.49572 26.3652 9.68992 26.537 9.92847C26.7088 10.167 26.8211 10.443 26.8649 10.7336C26.9086 11.0243 26.8824 11.3213 26.7885 11.5999C26.6932 12.258 26.3625 12.8592 25.8578 13.2922C25.3531 13.7253 24.7085 13.9607 24.0435 13.9548H22.6805L22.1865 16.3298L20.2695 16.3308ZM22.9565 12.5818H23.8445C24.1128 12.5611 24.3674 12.4548 24.5704 12.2781C24.7734 12.1014 24.9141 11.8638 24.9716 11.6008C25.0114 11.4917 25.0245 11.3748 25.01 11.2595C24.9955 11.1443 24.9537 11.0341 24.8881 10.9382C24.8224 10.8424 24.7349 10.7639 24.6327 10.7087C24.5305 10.6535 24.4167 10.6232 24.3005 10.6208H23.3525L22.9565 12.5818Z"
        fill="#3CA9C7" />
</svg>