<svg xmlns="http://www.w3.org/2000/svg" width="39" height="26" viewBox="0 0 39 26" fill="none">
    <path
        d="M1.66148 0.791748H36.6435C36.8668 0.796169 37.0869 0.844784 37.2915 0.934326C37.4961 1.02387 37.681 1.15269 37.8357 1.31372C37.9904 1.47475 38.1119 1.66482 38.1932 1.8728C38.2745 2.08078 38.3139 2.30286 38.3094 2.52612V24.2019C38.3183 24.6526 38.1477 25.0883 37.8353 25.4133C37.5229 25.7383 37.0943 25.9259 36.6435 25.9348H1.66148C1.21076 25.9259 0.782011 25.7383 0.469585 25.4133C0.157159 25.0883 -0.0133757 24.6526 -0.0045363 24.2019V2.52612C-0.00904614 2.30286 0.030505 2.08078 0.111797 1.8728C0.193088 1.66482 0.314507 1.47475 0.469219 1.31372C0.62393 1.15269 0.808843 1.02387 1.01341 0.934326C1.21797 0.844784 1.43822 0.796169 1.66148 0.791748Z"
        fill="#353A40" />
    <path
        d="M22.6842 17.3561C22.4198 17.2217 22.2024 17.01 22.0603 16.7496C21.8899 16.431 21.8071 16.0732 21.8203 15.712C21.8057 15.4659 21.8399 15.2192 21.9213 14.9865C22.0026 14.7537 22.1295 14.5395 22.2943 14.3561C22.4696 14.1892 22.6772 14.06 22.9044 13.9767C23.1317 13.8934 23.3736 13.8575 23.6152 13.8717C23.8587 13.856 24.1028 13.8903 24.3325 13.9723C24.5623 14.0543 24.7728 14.1825 24.9513 14.3488C25.1146 14.5287 25.2401 14.7396 25.3207 14.9689C25.4012 15.1982 25.4351 15.4412 25.4203 15.6837C25.4351 16.0354 25.3665 16.3856 25.2202 16.7057C25.088 16.9663 24.8822 17.1823 24.6283 17.3268C24.3309 17.4841 23.9975 17.5608 23.6613 17.549C23.325 17.5611 22.9906 17.4951 22.6842 17.3561ZM23.0902 14.9391C22.9613 15.1774 22.8938 15.444 22.8938 15.715C22.8938 15.9859 22.9613 16.2525 23.0902 16.4909C23.1582 16.5647 23.2409 16.6234 23.3328 16.6637C23.4247 16.704 23.5239 16.7252 23.6243 16.7252C23.7246 16.7252 23.8239 16.704 23.9158 16.6637C24.0077 16.6234 24.0902 16.5647 24.1582 16.4909C24.3098 16.2436 24.3766 15.9534 24.3483 15.6647C24.3698 15.4041 24.299 15.1444 24.1483 14.9308C24.0822 14.8543 23.9996 14.794 23.9067 14.754C23.8139 14.714 23.7133 14.6953 23.6123 14.6998C23.5128 14.697 23.414 14.717 23.3235 14.7584C23.233 14.7999 23.1531 14.8619 23.0902 14.9391ZM13.1782 17.5128C13.0039 17.4957 12.8344 17.4461 12.6782 17.3668C12.5366 17.2896 12.4117 17.1851 12.3103 17.0597C12.2065 16.9407 12.1285 16.8017 12.0813 16.651C12.0199 16.4567 11.9863 16.2546 11.9813 16.0509V13.9327H13.0522V16.1007C13.0474 16.1831 13.059 16.266 13.0863 16.3439C13.1136 16.4218 13.1561 16.4934 13.2113 16.5548C13.3326 16.6591 13.4872 16.7164 13.6472 16.7164C13.8072 16.7164 13.9619 16.6591 14.0833 16.5548C14.1384 16.4928 14.1808 16.4204 14.2079 16.3419C14.235 16.2635 14.2463 16.1806 14.2412 16.0978V13.9298H15.3123V16.048C15.3128 16.2522 15.279 16.4551 15.2123 16.6481C15.1506 16.8317 15.048 16.9987 14.9122 17.1368C14.7925 17.2674 14.6454 17.3697 14.4813 17.4367C14.2401 17.5206 13.9856 17.5608 13.7302 17.5548C13.5459 17.5511 13.362 17.5368 13.1793 17.5118L13.1782 17.5128ZM28.3173 17.4889L27.0172 15.5368V17.4889H26.0072V13.9337H27.0072L28.3163 15.9V13.9337H29.3282V17.4889H28.3173ZM18.3392 17.4889L17.0393 15.5368V17.4889H16.0293V13.9337H17.0293L18.3373 15.9V13.9337H19.3492V17.4889H18.3392ZM20.1093 17.4796V13.9308H21.1892V17.4796H20.1093ZM11.9043 12.4987C11.6728 12.2588 11.5353 11.9439 11.5172 11.611L12.5393 11.546C12.55 11.6847 12.5961 11.818 12.6732 11.9337C12.7289 12.0054 12.8011 12.0624 12.8837 12.1002C12.9662 12.138 13.0566 12.1556 13.1472 12.151C13.2752 12.1595 13.4019 12.1196 13.5023 12.0397C13.5399 12.0099 13.5703 11.9723 13.5914 11.9293C13.6125 11.8863 13.6238 11.8391 13.6244 11.7911C13.625 11.7432 13.6148 11.696 13.5947 11.6525C13.5746 11.609 13.5451 11.5703 13.5083 11.5397C13.3421 11.4319 13.1544 11.3616 12.9583 11.3336C12.5928 11.2724 12.2475 11.1246 11.9513 10.902C11.8536 10.817 11.776 10.711 11.7241 10.5924C11.6722 10.4738 11.6474 10.3454 11.6512 10.216C11.6517 10.0322 11.7056 9.85254 11.8063 9.69886C11.9202 9.52744 12.0829 9.39423 12.2733 9.31605C12.5458 9.2117 12.8368 9.16423 13.1283 9.17689C13.4852 9.15308 13.8406 9.24183 14.1443 9.43079C14.2668 9.52773 14.3672 9.6499 14.439 9.7887C14.5107 9.92751 14.5521 10.0799 14.5603 10.236L13.5482 10.297C13.535 10.1641 13.4748 10.0402 13.3783 9.94788C13.2762 9.86995 13.1495 9.83138 13.0212 9.839C12.9206 9.83167 12.8207 9.86043 12.7393 9.92005C12.7093 9.94401 12.6852 9.97427 12.6687 10.0089C12.6522 10.0436 12.6439 10.0814 12.6443 10.1198C12.6451 10.1497 12.6526 10.179 12.6663 10.2057C12.6799 10.2324 12.6994 10.2559 12.7233 10.2741C12.8325 10.3436 12.9558 10.3879 13.0842 10.4039C13.4318 10.4683 13.7705 10.5737 14.0933 10.7179C14.2753 10.8051 14.4288 10.9421 14.5363 11.1129C14.6291 11.2721 14.6769 11.4535 14.6743 11.6378C14.6756 11.8617 14.6112 12.0809 14.4893 12.2687C14.3639 12.4624 14.184 12.6148 13.9723 12.7067C13.707 12.8137 13.4222 12.8649 13.1362 12.8561C12.6946 12.9022 12.2524 12.7734 11.9043 12.4977V12.4987ZM28.3182 12.7887L27.0183 10.8361V12.7887H26.0083V9.23402H27.0083L28.3173 11.2008V9.23402H29.3292V12.7887H28.3182ZM24.4432 12.7887L23.8693 11.7018C23.8231 11.5987 23.7568 11.506 23.6743 11.4288C23.5974 11.3738 23.5049 11.3447 23.4103 11.3458H23.3153V12.7887H22.2362V9.23402H24.0253C24.2819 9.22395 24.5385 9.2532 24.7863 9.32093C24.9602 9.37776 25.11 9.49131 25.2113 9.64369C25.3225 9.81477 25.3787 10.0159 25.3723 10.2199C25.3768 10.398 25.3343 10.5745 25.2493 10.7311C25.1669 10.8735 25.05 10.9925 24.9093 11.0778C24.7918 11.1445 24.6645 11.1925 24.5322 11.2199C24.6315 11.2492 24.7258 11.2929 24.8123 11.3497C24.8765 11.4054 24.934 11.4685 24.9833 11.5377C25.0404 11.6062 25.0909 11.6801 25.1343 11.7579L25.6543 12.7887H24.4432ZM23.3163 10.673H23.7693C23.8653 10.6661 23.9603 10.6496 24.0532 10.6246C24.1229 10.6103 24.1849 10.571 24.2273 10.5138C24.2724 10.4543 24.2963 10.3814 24.2953 10.3068C24.2984 10.2574 24.2904 10.2081 24.2719 10.1622C24.2533 10.1164 24.2247 10.075 24.1882 10.0416C24.0686 9.96809 23.9279 9.93629 23.7882 9.95081H23.3163V10.673ZM18.7163 12.7887V9.23402H21.5942V9.99281H19.7943V10.5577H21.4663V11.2838H19.7943V11.984H21.6493V12.7887H18.7163ZM16.0642 12.7887V10.1119H14.9692V9.23402H18.2343V10.1119H17.1343V12.7887H16.0642ZM8.19922 12.7887V9.23402H11.0773V9.99281H9.27722V10.5577H10.9482V11.2838H9.26929V11.984H11.1223V12.7887H8.19922ZM6.03223 12.7887L5.42322 10.5499L4.81628 12.7887H3.76331L2.99023 9.23402H4.01025L4.37732 11.2238L4.91528 9.23402H5.93127L6.47021 11.2218L6.83728 9.23402H7.85229L7.0863 12.7887H6.03223Z"
        fill="#ECD345" />
    <path
        d="M34.1194 17.551V9.17114H35.3193V17.551H34.1194ZM31.1294 17.551V9.17114H32.3293V17.551H31.1294Z"
        fill="#ECD345" />
</svg>